<svg width="105" height="67" fill="none" xmlns="http://www.w3.org/2000/svg"><path d="M104.492 34.705L77.084 64.843c-.46.885-1.664 1.603-2.69 1.603H49.04c-1.027 0-1.488-.718-1.028-1.603L75.42 34.705c.46-.886.46-2.322 0-3.208L48.013 1.957c-.46-.886 0-1.604 1.028-1.604h25.352c1.925 0 3.11 2.018 4.215 3.249 1.463 1.628 21.78 23.471 25.885 27.895.458.886.458 2.322-.001 3.208z" fill="red"/><path d="M104.492 34.705L77.084 64.843c-.46.885-1.664 1.603-2.69 1.603H49.04c-1.027 0-1.488-.718-1.028-1.603L75.42 34.705c.46-.886.46-2.322 0-3.208L48.013 1.957c-.46-.886 0-1.604 1.028-1.604h25.352c1.925 0 3.11 2.018 4.215 3.249 1.463 1.628 21.78 23.471 25.885 27.895.458.886.458 2.322-.001 3.208z" fill="url(#paint0_linear)"/><path d="M1.027 1.957C.567 1.072 1.028.354 2.055.354h25.353c2.347 0 5.431 4.557 6.963 6.208 2.694 2.904 22.989 24.652 23.136 24.936.46.886.46 2.322 0 3.208L30.099 64.844c-.46.885-1.665 1.603-2.692 1.603H2.055c-1.027 0-1.487-.718-1.028-1.603l27.409-30.138c.459-.886.459-2.322 0-3.208L1.027 1.958z" fill="red"/><path d="M1.027 1.957C.567 1.072 1.028.354 2.055.354h25.353c2.347 0 5.431 4.557 6.963 6.208 2.694 2.904 22.989 24.652 23.136 24.936.46.886.46 2.322 0 3.208L30.099 64.844c-.46.885-1.665 1.603-2.692 1.603H2.055c-1.027 0-1.487-.718-1.028-1.603l27.409-30.138c.459-.886.459-2.322 0-3.208L1.027 1.958z" fill="url(#paint1_linear)"/><defs><linearGradient id="paint0_linear" x1="76.336" y1=".353" x2="76.336" y2="66.446" gradientUnits="userSpaceOnUse"><stop stop-color="#8F00FF"/><stop offset="1" stop-color="#BB41AF"/></linearGradient><linearGradient id="paint1_linear" x1="29.35" y1=".354" x2="29.35" y2="66.447" gradientUnits="userSpaceOnUse"><stop stop-color="#8F00FF"/><stop offset="1" stop-color="#BB41AF"/></linearGradient></defs></svg>