<svg width="16" height="17" fill="none" xmlns="http://www.w3.org/2000/svg"><path d="M8.056 9.383c-3.754 0-6.887-1.368-7.629-3.188-.11.268-.17.545-.17.83 0 2.22 3.491 4.02 7.8 4.02 4.306 0 7.798-1.8 7.798-4.02 0-.285-.062-.562-.17-.83-.744 1.82-3.877 3.188-7.629 3.188z" fill="#fff"/><path d="M8.056 12.27c-3.754 0-6.887-1.368-7.629-3.187-.11.268-.17.546-.17.831 0 2.219 3.491 4.02 7.8 4.02 4.306 0 7.798-1.8 7.798-4.02 0-.285-.062-.563-.17-.831-.744 1.82-3.877 3.187-7.629 3.187z" fill="#fff"/><path d="M8.056 15.25c-3.754 0-6.887-1.367-7.629-3.188-.11.268-.17.546-.17.831 0 2.22 3.491 4.02 7.8 4.02 4.306 0 7.798-1.8 7.798-4.02 0-.285-.062-.563-.17-.83-.744 1.82-3.877 3.187-7.629 3.187zm.001-7.167c4.306 0 7.798-1.8 7.798-4.02 0-2.22-3.492-4.02-7.798-4.02-4.307 0-7.799 1.8-7.799 4.02 0 2.22 3.492 4.02 7.799 4.02z" fill="#fff"/></svg>