<svg width="47" height="15" viewBox="0 0 47 15" fill="none" xmlns="http://www.w3.org/2000/svg">
<path d="M5.42121 0.80897C5.85019 0.326359 6.46509 0.0502319 7.1108 0.0502319H44.5258C45.7743 0.0502319 46.7864 1.06234 46.7864 2.31083V12.1067C46.7864 13.3552 45.7743 14.3673 44.5258 14.3673H7.18214C6.4954 14.3673 5.84591 14.0552 5.41691 13.5189L1.25852 8.32094C0.570464 7.46087 0.602411 6.23012 1.33416 5.4069L5.42121 0.80897Z" fill="#1C2344"/>
<path d="M5.42121 0.80897C5.85019 0.326359 6.46509 0.0502319 7.1108 0.0502319H44.5258C45.7743 0.0502319 46.7864 1.06234 46.7864 2.31083V12.1067C46.7864 13.3552 45.7743 14.3673 44.5258 14.3673H7.18214C6.4954 14.3673 5.84591 14.0552 5.41691 13.5189L1.25852 8.32094C0.570464 7.46087 0.602411 6.23012 1.33416 5.4069L5.42121 0.80897Z" fill="url(#paint0_linear)"/>
<defs>
<linearGradient id="paint0_linear" x1="0.444149" y1="6.45526" x2="43.3955" y2="6.45526" gradientUnits="userSpaceOnUse">
<stop offset="0.0448726" stop-color="#6A45FF"/>
<stop offset="1" stop-color="#171D39"/>
</linearGradient>
</defs>
</svg>
