<svg width="47" height="15" fill="none" xmlns="http://www.w3.org/2000/svg"><path d="M5.421.809A2.26 2.26 0 017.111.05h37.415a2.26 2.26 0 012.26 2.26v9.797a2.26 2.26 0 01-2.26 2.26H7.182a2.26 2.26 0 01-1.765-.848L1.259 8.32a2.26 2.26 0 01.075-2.914L5.421.809z" fill="#1C2344"/><path d="M5.421.809A2.26 2.26 0 017.111.05h37.415a2.26 2.26 0 012.26 2.26v9.797a2.26 2.26 0 01-2.26 2.26H7.182a2.26 2.26 0 01-1.765-.848L1.259 8.32a2.26 2.26 0 01.075-2.914L5.421.809z" fill="url(#paint0_linear)"/><defs><linearGradient id="paint0_linear" x1=".444" y1="6.455" x2="43.395" y2="6.455" gradientUnits="userSpaceOnUse"><stop offset=".045" stop-color="#6A45FF"/><stop offset="1" stop-color="#171D39"/></linearGradient></defs></svg>