<svg width="33" height="33" fill="none" xmlns="http://www.w3.org/2000/svg"><path d="M24.787 22.31a2.852 2.852 0 01-2.848 2.849v1.899a4.754 4.754 0 004.747-4.748h-1.899zM5.796 10.915h1.899a2.852 2.852 0 012.849-2.849V6.167a4.753 4.753 0 00-4.748 4.748zM.035 13.827V32.82h18.991V13.827H.035zM5.732 29.02a1.901 1.901 0 01-1.899-1.899c0-1.047.852-1.899 1.9-1.899 1.046 0 1.898.852 1.898 1.9a1.901 1.901 0 01-1.899 1.898zm0-7.596a1.902 1.902 0 01-1.899-1.9c0-1.046.852-1.899 1.9-1.899 1.046 0 1.898.853 1.898 1.9s-.852 1.899-1.899 1.899zm7.597 7.596c-1.047 0-1.9-.852-1.9-1.899 0-1.047.853-1.899 1.9-1.899s1.899.852 1.899 1.9a1.901 1.901 0 01-1.9 1.898zm0-7.596c-1.047 0-1.9-.852-1.9-1.9 0-1.046.853-1.899 1.9-1.899s1.899.853 1.899 1.9-.852 1.899-1.9 1.899z" fill="#fff"/><path d="M13.455.406V11.79h7.597v7.609h11.395V.406H13.455zm6.81 6.81c-.37.37-.856.556-1.342.556-.487 0-.974-.185-1.344-.555a1.904 1.904 0 010-2.686 1.903 1.903 0 012.686-.002v.001a1.902 1.902 0 010 2.687zm4.029 4.029c-.37.37-.857.555-1.343.555s-.973-.185-1.343-.555a1.9 1.9 0 012.686-2.686 1.9 1.9 0 010 2.686zm4.03 4.028a1.898 1.898 0 01-2.686.002 1.902 1.902 0 01-.001-2.687c.74-.74 1.947-.74 2.686 0h.001c.738.74.738 1.945 0 2.685zm.261 7.037a6.655 6.655 0 01-6.646 6.647v1.9c4.712 0 8.546-3.834 8.546-8.547h-1.9zM1.997 10.915h1.9a6.655 6.655 0 016.646-6.647v-1.9c-4.712 0-8.546 3.834-8.546 8.547z" fill="#fff"/></svg>