<svg width="22" height="22" fill="none" xmlns="http://www.w3.org/2000/svg"><g clip-path="url(#clip0)" fill="#E2E2E2"><path d="M14.92 16.237a6.222 6.222 0 01-3.493 1.073 6.22 6.22 0 01-6.224-6.224v-.618H.877v.618c0 5.83 4.719 10.55 10.55 10.55a10.52 10.52 0 006.585-2.307l1.285 1.284 1.143-6.663-6.663 1.144 1.144 1.143zM11.427.537c-2.4 0-4.712.812-6.573 2.298L3.578 1.559 2.435 8.222 9.098 7.08 7.945 5.926a6.127 6.127 0 013.482-1.063 6.22 6.22 0 016.224 6.223v.618h4.326v-.618c0-5.83-4.719-10.55-10.55-10.55z"/></g><defs><clipPath id="clip0"><path fill="#fff" transform="translate(.877 .537)" d="M0 0h21.099v21.099H0z"/></clipPath></defs></svg>