<svg width="17" height="17" fill="none" xmlns="http://www.w3.org/2000/svg"><g clip-path="url(#clip0)" fill="#9E9E9E"><path d="M8.63 5.19c.733 0 1.172.39 1.172 1.05 0 1.195-2.135 1.525-2.135 2.977 0 .39.256.817.78.817.806 0 .709-.598 1.002-1.025.39-.574 2.208-1.184 2.208-2.77 0-1.72-1.537-2.44-3.099-2.44-1.488 0-2.855 1.061-2.855 2.257 0 .488.366.744.793.744 1.183 0 .573-1.61 2.135-1.61zm.867 6.638c0-.55-.451-1-1-1-.55 0-1 .452-1 1 0 .55.45 1 1 1 .549 0 1-.45 1-1z"/><path d="M16.592 8.314c0-4.363-3.55-7.912-7.912-7.912C4.317.402.768 3.952.768 8.314c0 4.363 3.549 7.912 7.912 7.912 4.362 0 7.912-3.549 7.912-7.912zm-15.036 0c0-3.928 3.196-7.123 7.124-7.123 3.927 0 7.123 3.195 7.123 7.123 0 3.928-3.196 7.123-7.123 7.123-3.928 0-7.124-3.195-7.124-7.123z"/></g><defs><clipPath id="clip0"><path fill="#fff" transform="translate(.768 .402)" d="M0 0h15.824v15.824H0z"/></clipPath></defs></svg>