<svg width="20" height="22" fill="none" xmlns="http://www.w3.org/2000/svg"><path d="M17.897 7.616a7.475 7.475 0 00-14.95 0C1.878 7.75.87 8.447.87 10.066v3.904c0 1.828 1.279 2.492 2.492 2.492h1.204c.23 0 .415-.186.415-.415v-8.04a.415.415 0 00-.415-.415h-.79a6.645 6.645 0 0113.29 0h-.789a.415.415 0 00-.415.415v8.027c0 .23.186.416.415.416h.79c-.117 2.853-1.488 3.521-4.224 3.642v-.278a.83.83 0 00-.831-.831H9.4a.83.83 0 00-.83.83v1.35c0 .459.371.83.83.83h2.62a.83.83 0 00.83-.83v-.24c2.634-.121 4.91-.665 5.047-4.498 1.067-.133 2.076-.83 2.076-2.45V10.07c0-1.628-1.005-2.322-2.076-2.455zM4.15 8.393v7.226h-.81c-.615 0-1.661-.216-1.661-1.661v-3.904c0-1.433 1.034-1.66 1.66-1.66h.81zm7.87 12.143v.631H9.4v-1.35h2.62v.72zm7.121-6.566c0 1.433-1.034 1.662-1.66 1.662h-.79v-7.21h.81c.615 0 1.661.216 1.661 1.661l-.02 3.887z" fill="#9E9E9E"/></svg>