<svg width="20" height="19" fill="none" xmlns="http://www.w3.org/2000/svg"><path d="M10.003.894v-.85L7.16 2.11l2.844 2.066v-.85a6.619 6.619 0 016.61 6.612 6.619 6.619 0 01-6.61 6.613 6.619 6.619 0 01-6.61-6.613H.96c0 4.996 4.048 9.046 9.042 9.046s9.043-4.05 9.043-9.046c0-4.995-4.049-9.045-9.043-9.045z" fill="#fff"/><path d="M13.552 9.94a3.553 3.553 0 00-3.549-3.55 3.553 3.553 0 00-3.548 3.55 3.553 3.553 0 003.548 3.55 3.553 3.553 0 003.549-3.55zM9.448 8.467h1.11v1.51l.806.647-.694.866-1.222-.98V8.469z" fill="#fff"/></svg>