<svg width="17" height="17" fill="none" xmlns="http://www.w3.org/2000/svg"><path d="M15.721 7.297h-.001L9.264.838a1.447 1.447 0 00-1.03-.427c-.389 0-.755.152-1.03.427L.752 7.293A1.46 1.46 0 001.76 9.785h.257v4.751c0 .94.765 1.706 1.705 1.706h2.526a.464.464 0 00.463-.464v-3.726a.78.78 0 01.778-.778h1.49c.43 0 .778.35.778.779v3.725c0 .256.208.464.464.464h2.525c.94 0 1.705-.765 1.705-1.706V9.784h.24a1.46 1.46 0 001.031-2.487zm-.656 1.405c-.1.1-.233.155-.375.155h-.702a.464.464 0 00-.464.464v5.215a.779.779 0 01-.778.778h-2.062v-3.261c0-.94-.765-1.706-1.705-1.706H7.49c-.94 0-1.705.765-1.705 1.706v3.261H3.722a.779.779 0 01-.778-.778V9.321a.464.464 0 00-.464-.464h-.69a.526.526 0 01-.386-.155.53.53 0 010-.75L7.86 1.495a.525.525 0 01.749 0l6.454 6.455.003.003a.531.531 0 01-.001.749z" fill="#9E9E9E"/></svg>