<svg width="29" height="31" viewBox="0 0 29 31" fill="none" xmlns="http://www.w3.org/2000/svg">
<path d="M14.2198 14.8492C17.9158 14.8492 20.9224 11.5215 20.9224 7.43125C20.9224 3.34103 17.9155 0.0136108 14.2198 0.0136108C10.5238 0.0136108 7.5166 3.34134 7.5166 7.43125C7.5166 11.5218 10.5238 14.8492 14.2198 14.8492Z" fill="white"/>
<path d="M21.9409 13.8759C21.5502 13.7914 21.1482 13.9614 20.9384 14.3016C18.5405 18.1877 14.6742 18.2998 14.2414 18.2998C13.8087 18.2998 9.94273 18.1877 7.54542 14.3029C7.33499 13.962 6.93203 13.7914 6.54101 13.8775C1.33495 15.0239 -0.0378615 22.8849 0.36792 29.2679C0.399641 29.7643 0.811076 30.1511 1.30825 30.1511H27.1753C27.6724 30.1511 28.0842 29.7647 28.1153 29.2679C28.5214 22.8777 27.1482 15.0123 21.9409 13.8759Z" fill="white"/>
</svg>
