<svg width="24" height="32" fill="none" xmlns="http://www.w3.org/2000/svg"><path d="M16.551 8.422a12.836 12.836 0 002.657-5.777 1.126 1.126 0 00-.488-1.125 1.227 1.227 0 00-1.265-.063c-.02.011-2.05 1.09-4.708 1.09-1.769 0-3.393-.486-4.827-1.444C7.058.528 6.372.26 5.76.26c-.585 0-1.104.254-1.422.698-.233.324-.35.732-.35 1.213 0 1.562 1.232 3.922 2.288 5.469.213.31.446.633.697.952-3.307 3.129-6.8 8.185-6.8 12.638 0 7.064 5.23 9.935 11.68 9.935 6.45 0 11.68-2.871 11.68-9.935 0-4.535-3.623-9.694-6.982-12.808zm-1.495 14.564c-.55.502-1.284.837-2.188.999v1.612c0 .554-.466 1.002-1.04 1.002-.576 0-1.042-.448-1.042-1.002v-1.559c-1.319-.172-2.306-.722-2.933-1.638a.97.97 0 01-.089-.944c.137-.31.425-.532.768-.593l.786-.14a1.06 1.06 0 011.045.412c.295.41.795.617 1.486.617 1.064 0 1.064-.408 1.064-.541a.496.496 0 00-.238-.445c-.166-.111-.468-.21-.898-.294-1.728-.34-2.842-.78-3.31-1.309-.475-.537-.706-1.137-.706-1.835 0-.757.26-1.44.772-2.027.496-.568 1.254-.937 2.253-1.098v-1.154c0-.554.466-1.002 1.041-1.002s1.041.448 1.041 1.002v1.175c.895.165 1.593.512 2.123 1.058a.976.976 0 01.246.94 1.02 1.02 0 01-.696.701l-.539.163a1.067 1.067 0 01-1.09-.292c-.27-.294-.674-.443-1.196-.443-.421 0-.923.096-.923.556 0 .13.052.247.15.34.102.096.401.198.89.303 1.125.237 1.948.453 2.44.642.5.192.92.52 1.252.976.33.455.499 1.002.499 1.622a2.87 2.87 0 01-.968 2.196zM11.127 9.095c-.22 0-.897-.302-1.894-1.447-.795-.912-1.58-2.114-2.152-3.298a9.695 9.695 0 01-.564-1.398l.047.031c1.84 1.23 3.92 1.853 6.183 1.853 1.34 0 2.55-.223 3.519-.49-1.086 2.693-3.197 4.749-5.139 4.749z" fill="#fff"/></svg>