<svg width="61" height="100" fill="none" xmlns="http://www.w3.org/2000/svg"><path d="M30.374 99.175c6.402 0 11.592-5.192 11.592-11.597 0-6.404-5.19-11.596-11.592-11.596-6.403 0-11.593 5.192-11.593 11.596 0 6.405 5.19 11.597 11.593 11.597z" fill="#24C1D8"/><path d="M30.374 99.175c6.402 0 11.592-5.192 11.592-11.597 0-6.404-5.19-11.596-11.592-11.596-6.403 0-11.593 5.192-11.593 11.596 0 6.405 5.19 11.597 11.593 11.597z" fill="url(#paint0_linear)"/><path d="M30.374.218C13.754.218.232 13.743.232 30.368v2.9h23.186v-2.9c0-3.836 3.12-6.957 6.956-6.957 3.835 0 6.955 3.12 6.955 6.958a6.96 6.96 0 01-2.461 5.31L18.78 49.358v20.824h23.186v-10.1l7.917-6.733A30.116 30.116 0 0060.515 30.37C60.515 13.743 46.994.218 30.374.218z" fill="#24C1D8"/><path d="M30.374.218C13.754.218.232 13.743.232 30.368v2.9h23.186v-2.9c0-3.836 3.12-6.957 6.956-6.957 3.835 0 6.955 3.12 6.955 6.958a6.96 6.96 0 01-2.461 5.31L18.78 49.358v20.824h23.186v-10.1l7.917-6.733A30.116 30.116 0 0060.515 30.37C60.515 13.743 46.994.218 30.374.218z" fill="url(#paint1_linear)"/><defs><linearGradient id="paint0_linear" x1="30.374" y1="75.982" x2="30.374" y2="99.175" gradientUnits="userSpaceOnUse"><stop stop-color="#DB00FF"/><stop offset="1" stop-color="#9E00FF" stop-opacity=".61"/></linearGradient><linearGradient id="paint1_linear" x1="30.374" y1=".218" x2="30.374" y2="70.183" gradientUnits="userSpaceOnUse"><stop stop-color="#DB00FF"/><stop offset="1" stop-color="#9E00FF" stop-opacity=".61"/></linearGradient></defs></svg>