<svg width="22" height="22" fill="none" xmlns="http://www.w3.org/2000/svg"><g clip-path="url(#clip0)" fill="#fff"><path d="M14.143 16.257a6.224 6.224 0 01-3.495 1.073 6.222 6.222 0 01-6.225-6.226v-.618H.095v.618c0 5.832 4.72 10.553 10.553 10.553 2.407 0 4.724-.815 6.588-2.308l1.285 1.285 1.143-6.665L13 15.113l1.144 1.144zM10.648.551a10.52 10.52 0 00-6.575 2.3L2.797 1.573 1.653 8.24l6.665-1.143-1.154-1.154a6.13 6.13 0 013.484-1.063 6.222 6.222 0 016.226 6.225v.619H21.2v-.619C21.2 5.272 16.48.551 10.648.551z"/></g><defs><clipPath id="clip0"><path fill="#fff" transform="translate(.095 .551)" d="M0 0h21.106v21.106H0z"/></clipPath></defs></svg>