<svg width="23" height="20" fill="none" xmlns="http://www.w3.org/2000/svg"><path d="M21.079 7.88L3.448.57a2.1 2.1 0 00-2.19.353 2.097 2.097 0 00-.664 2.115l1.733 6.79L.594 16.62a2.1 2.1 0 00.664 2.116 2.1 2.1 0 002.19.353l17.63-7.312A2.076 2.076 0 0022.38 9.83c0-.869-.498-1.615-1.301-1.948zm-.49 2.715l-17.633 7.31a.815.815 0 01-.861-.139.814.814 0 01-.26-.832l1.65-6.467h6.361a.64.64 0 100-1.28H3.485l-1.65-6.466a.814.814 0 01.261-.832.815.815 0 01.861-.139l17.631 7.312a.813.813 0 01.512.766c0 .13-.037.569-.512.765z" fill="#fff"/></svg>