<svg width="53" height="31" fill="none" xmlns="http://www.w3.org/2000/svg"><path d="M50.121 24.72c-1.548-1.901-3.369-3.524-5.092-5.247-1.555-1.554-1.653-2.455-.403-4.248 1.364-1.957 2.83-3.839 4.207-5.787 1.285-1.82 2.598-3.636 3.274-5.815.43-1.387.05-2-1.338-2.243a4.186 4.186 0 00-.73-.044l-8.237-.01c-1.014-.016-1.575.437-1.934 1.358-.484 1.245-.983 2.49-1.56 3.69-1.31 2.724-2.772 5.357-4.822 7.587-.451.491-.951 1.113-1.707.857-.945-.354-1.223-1.948-1.207-2.487l-.009-9.739C30.38 1.202 30.08.581 28.731.31l-8.556.002c-1.142 0-1.715.452-2.325 1.184-.352.422-.458.697.265.837 1.42.276 2.22 1.217 2.433 2.676.34 2.33.316 4.67.12 7.01-.058.683-.172 1.364-.437 2.002-.414 1.003-1.082 1.207-1.96.59-.794-.558-1.352-1.346-1.898-2.138-2.052-2.97-3.69-6.172-5.024-9.538-.386-.972-1.051-1.562-2.057-1.578-2.471-.04-4.943-.047-7.414.002-1.487.03-1.93.769-1.325 2.15 2.692 6.132 5.688 12.094 9.598 17.525 2.008 2.788 4.313 5.248 7.291 6.992 3.375 1.977 7.009 2.572 10.835 2.388 1.792-.086 2.33-.563 2.413-2.392.056-1.252.194-2.496.797-3.621.592-1.104 1.488-1.314 2.52-.628.517.344.952.782 1.363 1.243 1.009 1.13 1.981 2.295 3.028 3.387 1.313 1.369 2.868 2.177 4.824 2.012l7.57.002c1.22-.082 1.852-1.614 1.152-3.009-.492-.976-1.138-1.846-1.823-2.688z" fill="#fff"/></svg>