<svg width="12" height="11" fill="none" xmlns="http://www.w3.org/2000/svg"><g clip-path="url(#clip0)" fill="#9E9E9E"><path d="M6.726 1.021a.373.373 0 00-.372.04L2.933 3.6H1.298c-.387 0-.703.293-.703.653v2.613c0 .36.316.653.703.653h1.635l3.42 2.54a.373.373 0 00.373.04.325.325 0 00.199-.295v-8.49a.326.326 0 00-.2-.294zm1.979 2.23a.372.372 0 00-.497.003.311.311 0 00.002.462 2.48 2.48 0 01.825 1.845 2.48 2.48 0 01-.825 1.844.31.31 0 00-.002.462c.069.064.16.096.25.096a.365.365 0 00.247-.094A3.101 3.101 0 009.738 5.56c0-.879-.366-1.699-1.033-2.31z"/><path d="M9.697 2.331a.372.372 0 00-.498.002.311.311 0 00.002.462c.8.736 1.24 1.718 1.24 2.766 0 1.047-.44 2.029-1.24 2.765a.312.312 0 00-.002.462c.07.064.16.096.25.096s.18-.031.248-.095c.934-.858 1.448-2.005 1.448-3.228 0-1.224-.514-2.37-1.448-3.23z"/></g><defs><clipPath id="clip0"><path fill="#fff" transform="translate(.595 .662)" d="M0 0h10.55v9.796H0z"/></clipPath></defs></svg>