<svg width="25" height="31" fill="none" xmlns="http://www.w3.org/2000/svg"><path d="M24.493.272a.883.883 0 00-1.249 0l-.598.599-.599-.599a.883.883 0 10-1.249 1.25l.599.598-2.413 2.414c.268.129.516.304.732.52.21.21.404.433.58.666l4.197-4.198a.883.883 0 000-1.25zm-7.276 6.03L8.792 14.73l3.924 3.925a2.773 2.773 0 003.924 0 .884.884 0 00-1.249-1.25 1.008 1.008 0 01-1.427 0l4.502-4.502a4.666 4.666 0 000-6.6.883.883 0 00-1.25-.001zM7.33 16.324a8.12 8.12 0 01-1.952 3.158L.935 23.926a.884.884 0 000 1.25l4.73 4.73a.883.883 0 001.428-.258l4.374-9.744-3.924-3.925a.882.882 0 00-.214.345z" fill="#fff"/></svg>