<svg width="21" height="32" fill="none" xmlns="http://www.w3.org/2000/svg"><path d="M10.708 30.933l9.186-8.09a.97.97 0 00.488-.793l-.016-7.464c0-.302-.22-.437-.49-.301l-9.187 8.089c-.27.136-.708.136-.98.002l-9.038-8.05c-.27-.135-.49.001-.489.303l.016 7.464c.002.567.619.915.995 1.24.498.43 7.182 6.396 8.535 7.602.271.134.71.134.98-.002z" fill="#EA002B"/><path d="M.641.492C.371.358.151.494.152.796L.168 8.26c.002.691 1.395 1.596 1.9 2.046.889.792 7.543 6.752 7.63 6.796.271.134.71.133.98-.003l9.186-8.089a.97.97 0 00.488-.793L20.336.753c0-.302-.22-.437-.49-.302l-9.187 8.09c-.27.135-.708.136-.979.002L.641.493z" fill="#EA002B"/></svg>