<svg width="21" height="31" fill="none" xmlns="http://www.w3.org/2000/svg"><path d="M9.947.166L.707 8.193a.97.97 0 00-.494.79L.18 16.448c-.001.302.218.438.489.304l9.24-8.027c.271-.134.71-.132.98.005l8.984 8.11c.27.137.49.002.49-.3l.035-7.464c.002-.567-.612-.919-.986-1.246-.496-.433-7.139-6.445-8.485-7.66a1.234 1.234 0 00-.979-.004z" fill="#24CB00"/><path d="M19.81 30.673c.27.137.489.002.49-.3l.034-7.465c.003-.69-1.384-1.605-1.886-2.058-.883-.798-7.498-6.803-7.584-6.846a1.233 1.233 0 00-.98-.005l-9.24 8.027a.97.97 0 00-.493.79l-.034 7.465c-.002.302.217.438.488.305l9.24-8.028c.271-.134.71-.132.98.005l8.984 8.11z" fill="#24CB00"/></svg>