<svg width="191" height="176" fill="none" xmlns="http://www.w3.org/2000/svg"><path transform="matrix(-.89497 .44612 .44478 .89564 138.183 .438)" fill="url(#paint0_linear)" d="M0 0h27.087v118.261H0z"/><path transform="matrix(-.89497 .44612 .44478 .89564 24.381 57.164)" fill="url(#paint1_linear)" d="M0 0h27.087v118.261H0z"/><path transform="matrix(-.89497 .44612 .44478 .89564 105.881 6.44)" fill="url(#paint2_linear)" d="M0 0h27.087v142.365H0z"/><path transform="matrix(-.89497 .44612 .44478 .89564 48.643 34.971)" fill="url(#paint3_linear)" d="M0 0h27.087v142.365H0z"/><path transform="matrix(-.89497 .44612 .44478 .89564 73.91 14.802)" fill="url(#paint4_linear)" d="M0 0h27.087v155.923H0z"/><defs><linearGradient id="paint0_linear" x1="13.543" y1="0" x2="13.543" y2="118.261" gradientUnits="userSpaceOnUse"><stop stop-color="#AF1BFA"/><stop offset="1" stop-color="#C40FFC" stop-opacity="0"/></linearGradient><linearGradient id="paint1_linear" x1="13.543" y1="0" x2="13.543" y2="118.261" gradientUnits="userSpaceOnUse"><stop stop-color="#AF1BFA"/><stop offset="1" stop-color="#C40FFC" stop-opacity="0"/></linearGradient><linearGradient id="paint2_linear" x1="13.543" y1="0" x2="13.543" y2="142.365" gradientUnits="userSpaceOnUse"><stop stop-color="#AF1BFA"/><stop offset="1" stop-color="#C40FFC" stop-opacity="0"/></linearGradient><linearGradient id="paint3_linear" x1="13.543" y1="0" x2="13.543" y2="142.365" gradientUnits="userSpaceOnUse"><stop stop-color="#AF1BFA"/><stop offset="1" stop-color="#C40FFC" stop-opacity="0"/></linearGradient><linearGradient id="paint4_linear" x1="13.543" y1="0" x2="13.543" y2="155.923" gradientUnits="userSpaceOnUse"><stop stop-color="#AF1BFA"/><stop offset="1" stop-color="#C40FFC" stop-opacity="0"/></linearGradient></defs></svg>