<svg width="179" height="65" viewBox="0 0 179 65" fill="none" xmlns="http://www.w3.org/2000/svg">
<path d="M0.946533 7.57768C0.946533 3.41603 4.32021 0.0423584 8.48185 0.0423584H159.488C162.41 0.0423584 165.068 1.73088 166.309 4.37527L177.328 27.8446C178.251 29.81 178.281 32.078 177.411 34.0672L166.25 59.5775C165.051 62.3203 162.341 64.0926 159.347 64.0926H8.48186C4.32021 64.0926 0.946533 60.7189 0.946533 56.5573V7.57768Z" fill="#1C2344"/>
<path d="M0.946533 7.57768C0.946533 3.41603 4.32021 0.0423584 8.48185 0.0423584H159.488C162.41 0.0423584 165.068 1.73088 166.309 4.37527L177.328 27.8446C178.251 29.81 178.281 32.078 177.411 34.0672L166.25 59.5775C165.051 62.3203 162.341 64.0926 159.347 64.0926H8.48186C4.32021 64.0926 0.946533 60.7189 0.946533 56.5573V7.57768Z" fill="url(#paint0_linear)" fill-opacity="0.6"/>
<defs>
<linearGradient id="paint0_linear" x1="197.276" y1="32.4273" x2="0.946533" y2="32.4273" gradientUnits="userSpaceOnUse">
<stop stop-color="#EA002B"/>
<stop offset="1" stop-color="#1C2344"/>
</linearGradient>
</defs>
</svg>
