<svg width="179" height="65" fill="none" xmlns="http://www.w3.org/2000/svg"><path d="M.947 7.978A7.535 7.535 0 018.482.443h151.006a7.534 7.534 0 016.821 4.333l11.019 23.469a7.535 7.535 0 01.083 6.223l-11.161 25.51a7.533 7.533 0 01-6.903 4.515H8.482a7.535 7.535 0 01-7.535-7.535V7.978z" fill="#1C2344"/><path d="M.947 7.978A7.535 7.535 0 018.482.443h151.006a7.534 7.534 0 016.821 4.333l11.019 23.469a7.535 7.535 0 01.083 6.223l-11.161 25.51a7.533 7.533 0 01-6.903 4.515H8.482a7.535 7.535 0 01-7.535-7.535V7.978z" fill="url(#paint0_linear)" fill-opacity=".6"/><defs><linearGradient id="paint0_linear" x1="197.276" y1="32.828" x2=".947" y2="32.828" gradientUnits="userSpaceOnUse"><stop stop-color="#24CB00"/><stop offset="1" stop-color="#1C2344"/></linearGradient></defs></svg>