<svg width="179" height="65" viewBox="0 0 179 65" fill="none" xmlns="http://www.w3.org/2000/svg">
<path d="M0.946533 7.97807C0.946533 3.81642 4.32021 0.442749 8.48185 0.442749H159.488C162.41 0.442749 165.068 2.13127 166.309 4.77566L177.328 28.245C178.251 30.2104 178.281 32.4784 177.411 34.4676L166.25 59.9779C165.051 62.7207 162.341 64.493 159.347 64.493H8.48186C4.32021 64.493 0.946533 61.1193 0.946533 56.9577V7.97807Z" fill="#1C2344"/>
<path d="M0.946533 7.97807C0.946533 3.81642 4.32021 0.442749 8.48185 0.442749H159.488C162.41 0.442749 165.068 2.13127 166.309 4.77566L177.328 28.245C178.251 30.2104 178.281 32.4784 177.411 34.4676L166.25 59.9779C165.051 62.7207 162.341 64.493 159.347 64.493H8.48186C4.32021 64.493 0.946533 61.1193 0.946533 56.9577V7.97807Z" fill="url(#paint0_linear)" fill-opacity="0.6"/>
<defs>
<linearGradient id="paint0_linear" x1="197.276" y1="32.8277" x2="0.946533" y2="32.8277" gradientUnits="userSpaceOnUse">
<stop stop-color="#24CB00"/>
<stop offset="1" stop-color="#1C2344"/>
</linearGradient>
</defs>
</svg>
