<svg width="20" height="20" fill="none" xmlns="http://www.w3.org/2000/svg"><g clip-path="url(#clip0)"><path d="M10.17.895C4.992.895.75 5.137.75 10.314c0 5.177 4.243 9.42 9.42 9.42 5.176 0 9.418-4.243 9.418-9.42S15.346.894 10.17.894z" fill="#FEDB41"/><path d="M19.589 10.314c0 5.177-4.243 9.42-9.42 9.42V.893c5.177 0 9.42 4.243 9.42 9.42z" fill="#FCBF29"/><path d="M10.17 3.14c-3.952 0-7.175 3.222-7.175 7.174 0 3.952 3.223 7.175 7.174 7.175 3.952 0 7.175-3.223 7.175-7.175s-3.223-7.175-7.175-7.175z" fill="#FEA832"/><path d="M17.344 10.314c0 3.952-3.223 7.175-7.175 7.175V3.139c3.952 0 7.175 3.223 7.175 7.175z" fill="#FE9923"/><path d="M10.17 4.243a6.082 6.082 0 00-6.071 6.071 6.082 6.082 0 006.07 6.07 6.082 6.082 0 006.072-6.07 6.082 6.082 0 00-6.071-6.071z" fill="#FEDB41"/><path d="M16.24 10.314a6.082 6.082 0 01-6.07 6.07V4.244a6.082 6.082 0 016.07 6.071z" fill="#FCBF29"/><path d="M12.377 11.97a2.203 2.203 0 01-1.656 2.13v.63a.547.547 0 01-.552.551.547.547 0 01-.551-.552V14.1a2.203 2.203 0 01-1.656-2.13c0-.31.243-.552.552-.552.309 0 .552.243.552.552 0 .607.496 1.103 1.103 1.103.608 0 1.104-.496 1.104-1.103s-.496-1.104-1.104-1.104a2.214 2.214 0 01-2.207-2.208c0-1.026.706-1.887 1.656-2.13v-.63c0-.308.242-.551.551-.551.31 0 .552.243.552.552v.629a2.203 2.203 0 011.656 2.13.547.547 0 01-.552.552.547.547 0 01-.552-.552c0-.607-.496-1.104-1.104-1.104-.607 0-1.103.497-1.103 1.104 0 .607.496 1.104 1.103 1.104 1.215 0 2.208.993 2.208 2.208z" fill="#FEA832"/><path d="M12.377 11.97a2.203 2.203 0 01-1.656 2.13v.63a.547.547 0 01-.552.551v-2.208c.607 0 1.104-.496 1.104-1.103s-.496-1.104-1.104-1.104V9.762c1.215 0 2.208.993 2.208 2.208zM10.17 7.554V5.347c.309 0 .551.243.551.552v.629a2.203 2.203 0 011.656 2.13.547.547 0 01-.552.552.547.547 0 01-.552-.552c0-.607-.496-1.104-1.104-1.104z" fill="#FE9923"/></g><defs><clipPath id="clip0"><path fill="#fff" transform="translate(.75 .895)" d="M0 0h18.838v18.838H0z"/></clipPath></defs></svg>